<svg width="169" height="26" viewBox="0 0 169 26" fill="none" xmlns="http://www.w3.org/2000/svg">
<path d="M13.63 25.42C11.74 25.42 9.97833 25.1167 8.345 24.51C6.735 23.88 5.335 22.9933 4.145 21.85C2.955 20.7067 2.02167 19.365 1.345 17.825C0.691667 16.285 0.365 14.5933 0.365 12.75C0.365 10.9067 0.691667 9.215 1.345 7.675C2.02167 6.135 2.955 4.79333 4.145 3.65C5.35833 2.50667 6.77 1.63167 8.38 1.025C9.99 0.394999 11.7517 0.0799996 13.665 0.0799996C15.7883 0.0799996 17.7017 0.453333 19.405 1.2C21.1317 1.92333 22.5783 2.99667 23.745 4.42L20.105 7.78C19.265 6.82333 18.3317 6.11167 17.305 5.645C16.2783 5.155 15.1583 4.91 13.945 4.91C12.8017 4.91 11.7517 5.09667 10.795 5.47C9.83833 5.84333 9.01 6.38 8.31 7.08C7.61 7.78 7.06167 8.60833 6.665 9.565C6.29167 10.5217 6.105 11.5833 6.105 12.75C6.105 13.9167 6.29167 14.9783 6.665 15.935C7.06167 16.8917 7.61 17.72 8.31 18.42C9.01 19.12 9.83833 19.6567 10.795 20.03C11.7517 20.4033 12.8017 20.59 13.945 20.59C15.1583 20.59 16.2783 20.3567 17.305 19.89C18.3317 19.4 19.265 18.665 20.105 17.685L23.745 21.045C22.5783 22.4683 21.1317 23.5533 19.405 24.3C17.7017 25.0467 15.7767 25.42 13.63 25.42ZM38.6364 25V21.325L38.2864 20.52V13.94C38.2864 12.7733 37.9247 11.8633 37.2014 11.21C36.5014 10.5567 35.4164 10.23 33.9464 10.23C32.9431 10.23 31.9514 10.3933 30.9714 10.72C30.0147 11.0233 29.1981 11.4433 28.5214 11.98L26.5614 8.165C27.5881 7.44167 28.8247 6.88167 30.2714 6.485C31.7181 6.08833 33.1881 5.89 34.6814 5.89C37.5514 5.89 39.7797 6.56667 41.3664 7.92C42.9531 9.27333 43.7464 11.385 43.7464 14.255V25H38.6364ZM32.8964 25.28C31.4264 25.28 30.1664 25.035 29.1164 24.545C28.0664 24.0317 27.2614 23.3433 26.7014 22.48C26.1414 21.6167 25.8614 20.6483 25.8614 19.575C25.8614 18.455 26.1297 17.475 26.6664 16.635C27.2264 15.795 28.1014 15.1417 29.2914 14.675C30.4814 14.185 32.0331 13.94 33.9464 13.94H38.9514V17.125H34.5414C33.2581 17.125 32.3714 17.335 31.8814 17.755C31.4147 18.175 31.1814 18.7 31.1814 19.33C31.1814 20.03 31.4497 20.59 31.9864 21.01C32.5464 21.4067 33.3047 21.605 34.2614 21.605C35.1714 21.605 35.9881 21.395 36.7114 20.975C37.4347 20.5317 37.9597 19.89 38.2864 19.05L39.1264 21.57C38.7297 22.7833 38.0064 23.705 36.9564 24.335C35.9064 24.965 34.5531 25.28 32.8964 25.28ZM72.803 5.89C74.2963 5.89 75.6146 6.19333 76.758 6.8C77.9246 7.38333 78.8346 8.29333 79.488 9.53C80.1646 10.7433 80.503 12.3067 80.503 14.22V25H75.043V15.06C75.043 13.5433 74.728 12.4233 74.098 11.7C73.468 10.9767 72.5813 10.615 71.438 10.615C70.6446 10.615 69.933 10.8017 69.303 11.175C68.673 11.525 68.183 12.0617 67.833 12.785C67.483 13.5083 67.308 14.43 67.308 15.55V25H61.848V15.06C61.848 13.5433 61.533 12.4233 60.903 11.7C60.2963 10.9767 59.4213 10.615 58.278 10.615C57.4846 10.615 56.773 10.8017 56.143 11.175C55.513 11.525 55.023 12.0617 54.673 12.785C54.323 13.5083 54.148 14.43 54.148 15.55V25H48.688V6.17H53.903V11.315L52.923 9.81C53.5763 8.52667 54.498 7.55833 55.688 6.905C56.9013 6.22833 58.278 5.89 59.818 5.89C61.5446 5.89 63.0496 6.33333 64.333 7.22C65.6396 8.08333 66.503 9.41333 66.923 11.21L64.998 10.685C65.628 9.215 66.6313 8.04833 68.008 7.185C69.408 6.32167 71.0063 5.89 72.803 5.89ZM94.8787 25.28C92.732 25.28 90.842 24.86 89.2087 24.02C87.5987 23.18 86.3503 22.0367 85.4637 20.59C84.577 19.12 84.1337 17.4517 84.1337 15.585C84.1337 13.695 84.5653 12.0267 85.4287 10.58C86.3153 9.11 87.517 7.96667 89.0337 7.15C90.5503 6.31 92.2653 5.89 94.1787 5.89C96.022 5.89 97.6787 6.28667 99.1487 7.08C100.642 7.85 101.82 8.97 102.684 10.44C103.547 11.8867 103.979 13.625 103.979 15.655C103.979 15.865 103.967 16.11 103.944 16.39C103.92 16.6467 103.897 16.8917 103.874 17.125H88.5787V13.94H101.004L98.9037 14.885C98.9037 13.905 98.7053 13.0533 98.3087 12.33C97.912 11.6067 97.3637 11.0467 96.6637 10.65C95.9637 10.23 95.147 10.02 94.2137 10.02C93.2803 10.02 92.452 10.23 91.7287 10.65C91.0287 11.0467 90.4803 11.6183 90.0837 12.365C89.687 13.0883 89.4887 13.9517 89.4887 14.955V15.795C89.4887 16.8217 89.7103 17.7317 90.1537 18.525C90.6203 19.295 91.262 19.89 92.0787 20.31C92.9187 20.7067 93.8987 20.905 95.0187 20.905C96.022 20.905 96.897 20.7533 97.6437 20.45C98.4137 20.1467 99.1137 19.6917 99.7437 19.085L102.649 22.235C101.785 23.215 100.7 23.9733 99.3937 24.51C98.087 25.0233 96.582 25.28 94.8787 25.28ZM107.614 25V6.17H112.829V11.49L112.094 9.95C112.654 8.62 113.552 7.61667 114.789 6.94C116.025 6.24 117.53 5.89 119.304 5.89V10.93C119.07 10.9067 118.86 10.895 118.674 10.895C118.487 10.8717 118.289 10.86 118.079 10.86C116.585 10.86 115.372 11.2917 114.439 12.155C113.529 12.995 113.074 14.3133 113.074 16.11V25H107.614ZM134.184 25.42C132.248 25.42 130.463 25.1167 128.829 24.51C127.219 23.88 125.808 22.9933 124.594 21.85C123.404 20.7067 122.471 19.365 121.794 17.825C121.141 16.285 120.814 14.5933 120.814 12.75C120.814 10.9067 121.141 9.215 121.794 7.675C122.471 6.135 123.416 4.79333 124.629 3.65C125.843 2.50667 127.266 1.63167 128.899 1.025C130.533 0.394999 132.329 0.0799996 134.289 0.0799996C136.459 0.0799996 138.408 0.441666 140.134 1.165C141.884 1.88833 143.354 2.93833 144.544 4.315L140.904 7.675C140.018 6.74167 139.049 6.05333 137.999 5.61C136.949 5.14333 135.806 4.91 134.569 4.91C133.379 4.91 132.294 5.09667 131.314 5.47C130.334 5.84333 129.483 6.38 128.759 7.08C128.059 7.78 127.511 8.60833 127.114 9.565C126.741 10.5217 126.554 11.5833 126.554 12.75C126.554 13.8933 126.741 14.9433 127.114 15.9C127.511 16.8567 128.059 17.6967 128.759 18.42C129.483 19.12 130.323 19.6567 131.279 20.03C132.259 20.4033 133.333 20.59 134.499 20.59C135.619 20.59 136.704 20.415 137.754 20.065C138.828 19.6917 139.866 19.0733 140.869 18.21L144.089 22.305C142.759 23.3083 141.208 24.0783 139.434 24.615C137.684 25.1517 135.934 25.42 134.184 25.42ZM138.909 21.57V12.365H144.089V22.305L138.909 21.57ZM157.931 25.28C155.925 25.28 154.14 24.86 152.576 24.02C151.036 23.18 149.811 22.0367 148.901 20.59C148.015 19.12 147.571 17.4517 147.571 15.585C147.571 13.695 148.015 12.0267 148.901 10.58C149.811 9.11 151.036 7.96667 152.576 7.15C154.14 6.31 155.925 5.89 157.931 5.89C159.915 5.89 161.688 6.31 163.251 7.15C164.815 7.96667 166.04 9.09833 166.926 10.545C167.813 11.9917 168.256 13.6717 168.256 15.585C168.256 17.4517 167.813 19.12 166.926 20.59C166.04 22.0367 164.815 23.18 163.251 24.02C161.688 24.86 159.915 25.28 157.931 25.28ZM157.931 20.8C158.841 20.8 159.658 20.59 160.381 20.17C161.105 19.75 161.676 19.155 162.096 18.385C162.516 17.5917 162.726 16.6583 162.726 15.585C162.726 14.4883 162.516 13.555 162.096 12.785C161.676 12.015 161.105 11.42 160.381 11C159.658 10.58 158.841 10.37 157.931 10.37C157.021 10.37 156.205 10.58 155.481 11C154.758 11.42 154.175 12.015 153.731 12.785C153.311 13.555 153.101 14.4883 153.101 15.585C153.101 16.6583 153.311 17.5917 153.731 18.385C154.175 19.155 154.758 19.75 155.481 20.17C156.205 20.59 157.021 20.8 157.931 20.8Z" fill="#37B361"/>
</svg>
